# xmcd
#
# Track frame offsets:
#	150
#	22742
#	38515
#	60602
#	85740
#	109787
#	131840
#	153222
#	180882
#	199282
#	222467
#	247185
#
# Disc length: 3632 seconds
#
# Revision: 0
# Processed by: cddbd v1.5.1PL0 Copyright (c) Steve Scherf et al.
# Submitted via: dBpowerAMP V4.0
#
DISCID=9a0e2e0c
DTITLE=Jeff Chaz - Give me my guitar
DYEAR=1998
DGENRE=Blues
TTITLE0=Ain't doing too bad
TTITLE1=Born in Lake Charles
TTITLE2=Love of mine
TTITLE3=Instrument of pleasure
TTITLE4=Further on up the road
TTITLE5=Smell something funky
TTITLE6=Members only
TTITLE7=Walking the dog
TTITLE8=I gotta be clean
TTITLE9=Long, hard and lonley
TTITLE10=The blues is allright
TTITLE11=Give me my guitar
EXTD=Blues artist
EXTT0=
EXTT1=
EXTT2=
EXTT3=
EXTT4=
EXTT5=
EXTT6=
EXTT7=
EXTT8=
EXTT9=
EXTT10=
EXTT11=
PLAYORDER=
